<svg xmlns="http://www.w3.org/2000/svg" xmlns:xlink="http://www.w3.org/1999/xlink" version="1.1" viewBox="-125 -1317 1618 1442" width="1618" height="1442">
  <path d="M891,-412Q771,-408,715,-408Q629,-408,477,-412Q445,-377,399,-329.5Q353,-282,312,-241.5Q271,-201,241.5,-172.5Q212,-144,193,-125Q82,-17,48.5,16Q15,49,-22,75.5Q-59,102,-90,102Q-125,102,-125,70Q-125,35,-75,-38Q-25,-111,38,-167Q101,-223,141,-223Q152,-223,172,-213L362,-416Q326,-421,268,-422.5Q210,-424,190,-431Q170,-438,170,-465Q170,-508,262,-600Q312,-651,356,-665Q400,-679,524,-680Q451,-670,420.5,-656.5Q390,-643,387,-616Q416,-616,440.5,-616Q465,-616,504.5,-616.5Q544,-617,563,-618Q727,-778,861,-896.5Q995,-1015,1143.5,-1121.5Q1292,-1228,1460,-1317Q1493,-1274,1493,-1227Q1493,-1188,1467.5,-1137Q1442,-1086,1359.5,-945.5Q1277,-805,1192,-647Q1220,-647,1238.5,-646.5Q1257,-646,1278,-645Q1335,-645,1347.5,-643Q1360,-641,1360,-623Q1360,-615,1344.5,-594.5Q1329,-574,1290,-526.5Q1251,-479,1214,-430L1067,-418Q950,-198,950,-170Q950,-129,993,-129Q1014,-129,1167,-217L1159,-164Q1077,-102,1031.5,-66.5Q986,-31,952.5,-7.5Q919,16,891.5,27.5Q864,39,836,39Q803,39,771,8.5Q739,-22,739,-78Q739,-101,756,-143.5Q773,-186,792.5,-225Q812,-264,891,-412M702,-639L1026,-645Q1083,-742,1118.5,-802Q1154,-862,1196.5,-932.5Q1239,-1003,1269.5,-1052Q1300,-1101,1337,-1163Q1265,-1118,1190,-1063Q1115,-1008,1021,-930.5Q927,-853,854,-786.5Q781,-720,702,-639" fill="black"/>
</svg>