<svg xmlns="http://www.w3.org/2000/svg" xmlns:xlink="http://www.w3.org/1999/xlink" version="1.1" viewBox="-76 -1229 709 1305" width="709" height="1305">
  <path d="M573,-315L573,-246Q513,-186,482,-159Q451,-132,397,-104Q397,-13,388,51Q379,115,348,185.5Q317,256,252,340Q188,423,126,467.5Q64,512,29,512Q-10,512,-43,448Q-76,384,-76,289Q-76,198,-45,97Q-14,-4,51,-164Q2,-228,2,-291Q2,-342,28,-369Q54,-396,102,-418Q137,-473,168.5,-511.5Q200,-550,254,-614Q358,-870,498,-1114Q537,-1182,554,-1205.5Q571,-1229,590,-1229Q607,-1229,620,-1204Q633,-1179,633,-1139Q633,-1090,622.5,-1049Q612,-1008,592.5,-966.5Q573,-925,538.5,-867Q504,-809,496,-795Q446,-707,383,-600Q320,-493,283.5,-431Q247,-369,231,-338Q285,-291,316.5,-257Q348,-223,371,-176Q405,-189,433,-207Q461,-225,499,-256.5Q537,-288,573,-315M274,-47L272,-68Q244,-65,227,-66.5Q210,-68,187.5,-75Q165,-82,152.5,-88Q140,-94,125,-100Q49,86,49,209Q49,270,67.5,313Q86,356,111,356Q137,356,176.5,310Q216,264,245,174Q274,84,274,-47" fill="black"/>
</svg>